# xmcd
#
# Track frame offsets: 
#        150
#        15655
#        31180
#        44090
#        55326
#        78169
#        98771
#        113323
#        128346
#        141506
#        161735
#        176185
#        195227
#        207763
#        224074
#        233768
#        248188
#        264500
#        278778
#        292289
#        302310
#        310895
#
# Disc length: 4285 seconds
#
# Revision: 0
# Processed by: cddbd v1.5.1PL2 Copyright (c) Steve Scherf et al.
# Submitted via: ExactAudioCopy v0.95a5
#
DISCID=3710bb16
DTITLE=Ерко - Конвалii бiлi
DYEAR=1900
DGENRE=
TTITLE0=Ковалii бiлi
TTITLE1=Рушив поiзд
TTITLE2=Розкажи менi
TTITLE3=Рушничок
TTITLE4=Солоний вiтер
TTITLE5=Смерекова хата
TTITLE6=Два Голуби
TTITLE7=Екiпаж
TTITLE8=Черемшина
TTITLE9=Чом в Тебе
TTITLE10=Ой смереко
TTITLE11=Ясени
TTITLE12=Стояв гуцул
TTITLE13=Двi Троянди
TTITLE14=Марина
TTITLE15=Старiсть зажди
TTITLE16=Червона рута
TTITLE17=Писаний камень
TTITLE18=Зоре
TTITLE19=Волошки
TTITLE20=Гарi-гарi
TTITLE21=На вигони
EXTD=
EXTT0=
EXTT1=
EXTT2=
EXTT3=
EXTT4=
EXTT5=
EXTT6=
EXTT7=
EXTT8=
EXTT9=
EXTT10=
EXTT11=
EXTT12=
EXTT13=
EXTT14=
EXTT15=
EXTT16=
EXTT17=
EXTT18=
EXTT19=
EXTT20=
EXTT21=
PLAYORDER=
